<svg width="1111" height="259" viewBox="0 0 1111 259" fill="none" xmlns="http://www.w3.org/2000/svg">
<g clip-path="url(#clip0_554_5793)">
<path fill-rule="evenodd" clip-rule="evenodd" d="M570.673 0.630059C484.01 6.96458 401.19 39.0166 332.296 92.8834C321 101.715 309.88 111.145 301.395 119.087C298.274 122.008 295.34 124.754 294.876 125.188C294.195 125.824 294.805 126.466 298.029 128.512C300.228 129.906 304.653 133.762 307.863 137.079L313.699 143.113L320.16 137.172C375.483 86.2875 442.666 51.0927 514.547 35.34C543.678 28.9566 569.93 26.1658 601.259 26.1228C622.147 26.0937 632.96 26.7111 652.025 29.022C717.063 36.904 780.458 61.0747 835.22 98.8683C867.316 121.017 885.2 138.405 911.758 173.274C922.31 187.129 926.587 193.208 926.162 193.766C925.83 194.202 916.407 207.051 905.216 222.321C894.02 237.591 883.46 251.943 881.747 254.215L878.626 258.347H894.405H910.184L926.381 236.214L942.579 214.082L949.286 223.204C952.972 228.222 960.244 238.167 965.444 245.305L974.907 258.284L990.906 258.315L1006.9 258.347L1005.1 255.867C1004.12 254.505 993.163 239.774 980.765 223.134L958.218 192.881L980.911 162.189C993.389 145.309 1003.6 131.334 1003.6 131.134C1003.6 130.934 996.69 130.77 988.249 130.77H972.895L960.569 147.461C953.795 156.641 946.975 165.866 945.414 167.961L942.585 171.771L933.208 159.037C921.759 143.478 913.491 133.478 901.471 120.632C887.724 105.942 873.691 94.2242 850.674 78.2153C784.443 32.1546 711.245 6.28505 631.006 0.576521C619.846 -0.217359 581.806 -0.183651 570.673 0.630059ZM148.468 155.783C148.468 225.266 148.511 227.903 149.713 232.834C152.677 244.977 159.69 253.153 170.54 257.114C173.989 258.373 175.99 258.615 183.153 258.644C190.814 258.673 192.203 258.493 197.027 256.834C199.976 255.821 202.781 254.738 203.259 254.428C203.997 253.95 203.959 251.907 203.011 241.067C202.396 234.029 201.831 228.188 201.756 228.087C201.68 227.987 199.279 228.939 196.42 230.203C184.743 235.365 178.304 234.709 175.372 228.058L174.008 224.965L173.83 154.402L173.65 83.8383H161.06H148.468V155.783ZM545.133 112.923C545.133 128.92 545.006 142.008 544.849 142.008C544.694 142.008 543.305 141.116 541.764 140.026C537.469 136.987 530.224 133.59 524.638 131.995C517.24 129.883 501.757 129.855 493.863 131.941C469.702 138.32 453.087 158.454 449.881 185.237C448.112 200.017 450.6 214.969 456.847 227.108C465.207 243.354 478.86 253.866 496.591 257.709C502.171 258.919 504.518 259.086 511.71 258.782C517.244 258.548 521.848 257.963 524.866 257.109C529.99 255.66 539.284 251.213 542.411 248.713C543.515 247.831 544.58 247.109 544.775 247.109C544.972 247.109 545.133 249.637 545.133 252.728V258.347H557.746H570.358V171.092V83.8383H557.746H545.133V112.923ZM729.913 156.054C729.927 235.536 729.78 232.408 733.831 241.028C736.388 246.477 741.821 252.259 746.855 254.896C756.092 259.733 768.743 260.344 779.342 256.464C782.43 255.336 785.067 254.291 785.206 254.142C785.578 253.755 783.387 229.015 782.942 228.509C782.736 228.278 779.728 229.294 776.261 230.768C766.007 235.126 759.917 234.389 756.876 228.421L755.448 225.626L755.275 154.732L755.103 83.8383H742.505H729.907L729.913 156.054ZM75.9462 92.1827C38.16 95.5145 9.89466 120.91 2.46647 158.203C1.88693 161.111 1.25882 167.247 1.06963 171.838C0.439638 187.157 2.91548 199.942 9.05404 213.067C18.5784 233.43 34.0161 247.506 54.7121 254.697C64.9863 258.267 72.2518 259.238 85.6368 258.831C95.2736 258.537 98.0901 258.206 103.545 256.72C118.54 252.639 129.752 245.824 139.828 234.665C142.801 231.371 143.369 230.396 142.865 229.443C142.524 228.797 138.696 224.574 134.358 220.056L126.47 211.842L121.986 216.276C116.383 221.816 113.315 224.172 108.108 226.934C88.8916 237.128 63.6689 234.226 46.4149 219.835C38.3139 213.078 31.5094 201.922 28.5575 190.556C26.5924 182.993 26.5785 168.38 28.5284 160.846C33.726 140.77 48.1434 125.838 67.6151 120.367C72.9465 118.868 74.962 118.649 83.1982 118.665C90.8872 118.679 93.6014 118.951 97.7029 120.115C107.355 122.854 115.065 127.631 122.277 135.34C124.347 137.553 126.202 139.363 126.398 139.363C126.594 139.363 130.547 135.175 135.183 130.057L143.612 120.75L138.315 115.129C135.401 112.037 131.297 108.207 129.192 106.617C120.991 100.419 109.343 95.4362 98.4965 93.487C92.9187 92.4849 80.6022 91.7723 75.9462 92.1827ZM594.322 175.72V258.347H607.25H620.178V233.889V209.431H640.75C663.289 209.431 670.43 208.743 679.707 205.676C700.288 198.873 712.999 184.598 717.023 163.777C718.491 156.21 717.993 141.176 716.047 134.093C709.877 111.649 691.661 97.1987 665.27 93.8224C661.819 93.3815 646.789 93.0959 626.957 93.0946L594.322 93.0926V175.72ZM660.076 119.548C667.78 120.314 675.284 122.561 679.455 125.352C682.994 127.721 687.145 132.414 688.918 136.063C691.887 142.162 692.816 152.152 691.116 159.702C688.433 171.641 681.48 178.361 668.251 181.813C663.166 183.14 661.132 183.253 641.619 183.285L620.493 183.321L620.329 151.923C620.238 134.653 620.301 120.153 620.466 119.699C620.85 118.651 649.937 118.54 660.076 119.548ZM248.108 130.834C242.243 131.764 232.625 135.363 226.937 138.759C221.202 142.181 213.235 149.778 209.265 155.61C194.136 177.834 194.162 211.231 209.327 233.558C212.449 238.154 219.33 245.238 223.719 248.373C228.456 251.757 236.679 255.542 242.825 257.168C250.806 259.279 267.437 259.26 274.909 257.132C293.144 251.939 307.743 238.582 314.644 220.782C318.035 212.033 319.008 206.066 318.97 194.228C318.939 184.713 318.731 182.518 317.334 177.034C311.501 154.126 295.768 137.596 274.526 132.06C268.357 130.452 254.561 129.812 248.108 130.834ZM826.925 131.099C808.769 134.709 794.046 146.351 785.797 163.631C779.608 176.583 777.616 194.315 780.657 209.297C787.079 240.942 812.654 260.473 845.48 258.807C855.077 258.321 862.189 256.538 869.594 252.764C878.486 248.231 882.717 244.515 891.184 233.802C891.934 232.855 891.078 231.573 884.111 223.226C879.755 218.002 875.983 213.669 875.73 213.597C875.471 213.525 873.565 215.673 871.48 218.372C867.143 223.998 863.424 227.188 858.397 229.602C846.948 235.096 830.844 234.005 820.51 227.036C816.891 224.594 811.91 219.281 810.436 216.285L809.473 214.338L852.772 205.52C876.594 200.669 896.171 196.616 896.284 196.513C896.822 196.031 894.996 179.5 893.953 175.389C888.441 153.626 873.612 137.708 853.523 132.007C847.214 130.216 833.693 129.754 826.925 131.099ZM1037.86 131.045C1025.29 133.556 1015.85 138.543 1007.16 147.255C998.191 156.24 992.44 167.426 989.637 181.338C988.608 186.449 988.608 202.656 989.637 207.778C994.737 233.151 1010.14 250.577 1033.24 257.117C1037.84 258.419 1040.12 258.634 1049.32 258.634C1058.52 258.634 1060.8 258.419 1065.4 257.117C1081.21 252.642 1093.77 242.837 1101.56 228.881C1109.91 213.917 1112.29 193.684 1107.77 176.05C1102.16 154.177 1086.04 137.465 1065.33 132.057C1058.48 130.268 1044.36 129.748 1037.86 131.045ZM330.875 173.901C331.12 222.856 330.865 220.207 336.509 232.502C339.163 238.286 340.443 240.195 344.555 244.505C348.672 248.821 350.483 250.153 356.006 252.933C365.67 257.799 369.841 258.687 382.746 258.629C392.513 258.586 393.962 258.423 399.021 256.803C404.644 255.003 409.696 252.623 412.859 250.284L414.593 249.002V253.675V258.347H427.206H439.818V194.558V130.77H427.252H414.685L414.427 168.283C414.197 201.598 414.045 206.239 413.061 209.761C408.487 226.142 397.019 234.27 380.236 233.029C368.242 232.141 361.3 226.71 357.68 215.38C356.34 211.189 356.301 210.099 356.086 170.927L355.865 130.77H343.263H330.66L330.875 173.901ZM267.281 157.194C274.024 159.002 278.909 161.92 283.401 166.824C297.195 181.881 296.671 209.232 282.317 223.384C275.013 230.586 266.619 233.69 256.306 233.001C247.127 232.388 240.405 229.264 234.184 222.719C227.198 215.37 223.953 206.426 223.969 194.558C223.986 182.778 227.229 173.83 234.142 166.496C242.735 157.382 255.066 153.92 267.281 157.194ZM517.701 156.888C524.393 158.367 529.68 161.378 534.413 166.407C541.363 173.791 544.633 182.78 544.654 194.558C544.674 206.329 541.367 215.473 534.465 222.724C530.224 227.178 526.717 229.426 520.538 231.648C515.352 233.514 504.023 233.344 498.467 231.316C488.189 227.565 481.014 219.795 477.238 208.326C475.749 203.808 475.53 202.104 475.506 194.889C475.465 182.503 478.285 174.422 485.332 166.728C493.513 157.799 505.431 154.175 517.701 156.888ZM846.769 156.875C854.393 158.957 861.02 163.966 865.237 170.842C867.509 174.533 868.551 177.703 867.502 177.703C867.143 177.703 853.031 180.542 836.136 184.012C819.248 187.482 805.262 190.144 805.056 189.927C804.844 189.711 805.143 187.181 805.707 184.304C808.417 170.567 817.309 160.406 829.675 156.918C834.098 155.67 842.279 155.65 846.769 156.875ZM1056.83 156.88C1069.2 159.625 1078.16 168.247 1082.21 181.287C1083.56 185.641 1083.88 187.969 1083.93 193.897C1083.97 198.09 1083.63 202.707 1083.14 204.804C1078.77 223.166 1064.1 234.456 1046.49 233.011C1032.01 231.822 1021 222.598 1016.44 207.83C1015.1 203.469 1014.79 201.159 1014.75 195.22C1014.66 182.772 1017.82 173.947 1025.09 166.295C1033.29 157.667 1044.88 154.227 1056.83 156.88Z" fill="#D0D5DD"/>
</g>
<defs>
<clipPath id="clip0_554_5793">
<rect width="1109.05" height="259" fill="white" transform="translate(0.974365)"/>
</clipPath>
</defs>
</svg>
